# xmcd
#
# Track frame offsets:
#  150
#  16212
#  31117
#  51275
#  64195
#  83510
#  102950
#  115820
#  130850
#  140757
#  165427
#  177257
#  194150
#  219587
#  231882
#  250797
#  267857
#  284370
#  294047
#
# Disc length: 4234 seconds
#
# Revision: 0
# Processed by: cddbd v1.5.1PL0 Copyright (c) Steve Scherf et al.
# Submitted via: AltoMP3_Maker 3.0
#
DISCID=0d108813
DTITLE=Daniel O'Donnell - A Date With Daniel O'Donnell
DYEAR=1900
DGENRE=
TTITLE0=I Need You
TTITLE1=Pretty Little Girl From Omagh
TTITLE2=The Love is in your eyes
TTITLE3=My Irish Country Home
TTITLE4=My Donegal Shore
TTITLE5=Follow Your dream
TTITLE6=Whatever Happened To Old Fashion Love
TTITLE7=I Just Want To Dance With You
TTITLE8=Our House Is A Home
TTITLE9=Meledy - 3 Songs
TTITLE10=Never Ending Song Of Love
TTITLE11=The Wedding Song
TTITLE12=The Mountains Of Mourne
TTITLE13=The Little Things
TTITLE14=Somewhere Between(Duet Mary Duff)
TTITLE15=I Need You
TTITLE16=Medley - 5 Songs
TTITLE17=Stand Beside Me
TTITLE18=How Great Thou Art
EXTD=
EXTT0=
EXTT1=
EXTT2=
EXTT3=
EXTT4=
EXTT5=
EXTT6=
EXTT7=
EXTT8=
EXTT9=
EXTT10=
EXTT11=
EXTT12=
EXTT13=
EXTT14=
EXTT15=
EXTT16=
EXTT17=
EXTT18=
PLAYORDER=
